<svg width="28" height="24" viewBox="0 0 28 24" fill="none" xmlns="http://www.w3.org/2000/svg">
<path fill-rule="evenodd" clip-rule="evenodd" d="M10.4653 0H8.50195V18.3242V20.2875H10.4653H20.609L19.3001 18.3242H10.4653V0ZM0 22.3789C1.17255 21.6996 1.96128 20.4313 1.96128 18.9787V0.000201587H3.92466V18.9787C3.92466 21.1026 2.80048 22.964 1.11468 24.0002L0 22.3789ZM15.0497 11.1254H19.4671L25.1934 20.2875H27.484L21.7449 11.1053C24.5927 10.8627 26.8295 8.47378 26.8295 5.5627C26.8295 2.49056 24.3396 0 21.2668 0H15.0497V1.9633H21.2668C23.2557 1.9633 24.8662 3.57479 24.8662 5.5627C24.8662 7.55061 23.2557 9.16209 21.2668 9.16209H15.0497V11.1254Z" fill="white"/>
</svg>
